# This file uses centimeters as units for non-parametric coordinates.

mtllib littleSnake.mtl
g default
v 17.000000 -1.000000 0.000000
v 15.000000 3.000000 0.000000
v 13.000000 0.000000 0.000000
v 11.000000 3.000000 0.000000
v 9.000000 0.000000 0.000000
v 7.000000 3.000000 0.000000
v 5.000000 0.000000 0.000000
v 3.000000 3.000000 0.000000
v 1.000000 0.000000 0.000000
v -1.000000 3.000000 0.000000
v -3.000000 -1.000001 0.000000
v -3.000000 -5.007454 0.000000
v -1.000000 -2.007457 0.000000
v 1.000000 -5.007457 0.000000
v 3.000000 -2.007457 0.000000
v 5.000000 -5.007457 0.000000
v 7.000000 -2.007457 0.000000
v 9.000000 -5.007457 0.000000
v 11.000000 -2.007457 0.000000
v 13.000000 -5.007457 0.000000
v 15.000000 -2.007457 0.000000
v 17.000000 -5.007457 0.000000
v 13.000000 -1.000000 0.000000
v 9.000001 -1.000000 0.000000
v 5.000000 -1.000000 0.000000
v 1.000000 -1.000000 0.000000
v 11.000000 0.000000 0.000000
v 7.000000 0.000000 0.000000
v 3.000000 0.000000 0.000000
v -1.000000 0.000000 0.000000
v 15.000000 0.000000 0.000000
vt 0.136364 0.000000
vt 0.333333 0.000000
vt 0.257576 0.181818
vt 0.454545 0.181818
vt 0.378788 0.363636
vt 0.575758 0.363636
vt 0.469697 0.500000
vt 0.696970 0.545455
vt 0.621212 0.727273
vt 0.818182 0.727273
vt 0.742424 0.909091
vt 0.606061 1.000000
vt 0.681818 0.818182
vt 0.484848 0.818182
vt 0.560606 0.636364
vt 0.333333 0.590909
vt 0.439394 0.454545
vt 0.303030 0.545455
vt 0.318182 0.272727
vt 0.121212 0.272727
vt 0.196970 0.090909
vt 0.000000 0.090909
vt 0.257576 0.181818
vt 0.378788 0.363636
vt 0.500000 0.545455
vt 0.621212 0.727273
vt 0.318182 0.272727
vt 0.424242 0.431818
vt 0.545455 0.613636
vt 0.681818 0.818182
vt 0.196970 0.090909
vn 0.000000 0.000000 1.000000
vn 0.000000 0.000000 1.000000
vn 0.000000 0.000000 1.000000
vn 0.000000 0.000000 1.000000
vn 0.000000 0.000000 1.000000
vn 0.000000 0.000000 1.000000
vn 0.000000 0.000000 1.000000
vn 0.000000 0.000000 1.000000
vn 0.000000 0.000000 1.000000
vn 0.000000 0.000000 1.000000
vn 0.000000 0.000000 1.000000
vn 0.000000 0.000000 1.000000
vn 0.000000 0.000000 1.000000
vn 0.000000 0.000000 1.000000
vn 0.000000 0.000000 1.000000
vn 0.000000 0.000000 1.000000
vn 0.000000 0.000000 1.000000
vn 0.000000 0.000000 1.000000
vn 0.000000 0.000000 1.000000
vn 0.000000 0.000000 1.000000
vn 0.000000 0.000000 1.000000
vn 0.000000 0.000000 1.000000
vn 0.000000 0.000000 1.000000
vn 0.000000 0.000000 1.000000
vn 0.000000 0.000000 1.000000
vn 0.000000 0.000000 1.000000
vn 0.000000 0.000000 1.000000
vn 0.000000 0.000000 1.000000
vn 0.000000 0.000000 1.000000
vn 0.000000 0.000000 1.000000
vn 0.000000 0.000000 1.000000
vn 0.000000 0.000000 1.000000
vn 0.000000 0.000000 1.000000
vn 0.000000 0.000000 1.000000
vn 0.000000 0.000000 1.000000
vn 0.000000 0.000000 1.000000
vn 0.000000 0.000000 1.000000
s 1
g polySurface1
usemtl initialShadingGroup
f 22/22/1 1/1/2 21/21/3
f 1/1/2 23/23/4 21/21/3
f 12/12/5 13/13/6 11/11/7
f 11/11/7 13/13/6 26/26/8
f 13/13/6 14/14/9 26/26/8
f 26/26/8 14/14/9 15/15/10
f 26/26/8 15/15/10 25/25/11
f 15/15/10 16/16/12 25/25/11
f 25/25/11 16/16/12 17/17/13
f 25/25/11 17/17/13 24/24/14
f 17/17/13 18/18/15 24/24/14
f 24/24/14 18/18/15 19/19/16
f 24/24/14 19/19/16 23/23/4
f 19/19/16 20/20/17 23/23/4
f 20/20/17 21/21/3 23/23/4
s 3
f 11/11/18 30/30/19 10/10/20
f 10/10/20 30/30/19 9/9/21
f 9/9/21 30/30/19 26/26/22
f 11/11/18 26/26/22 30/30/19
f 2/2/23 3/3/24 31/31/25
f 31/31/25 3/3/24 23/23/26
f 2/2/23 31/31/25 1/1/27
f 1/1/27 31/31/25 23/23/26
f 5/5/28 27/27/29 4/4/30
f 4/4/30 27/27/29 3/3/24
f 7/7/31 28/28/32 6/6/33
f 6/6/33 28/28/32 5/5/28
f 9/9/21 29/29/34 8/8/35
f 8/8/35 29/29/34 7/7/31
f 7/7/31 29/29/34 25/25/36
f 25/25/36 29/29/34 26/26/22
f 29/29/34 9/9/21 26/26/22
f 7/7/31 25/25/36 28/28/32
f 25/25/36 24/24/37 28/28/32
f 24/24/37 5/5/28 28/28/32
f 5/5/28 24/24/37 27/27/29
f 24/24/37 23/23/26 27/27/29
f 23/23/26 3/3/24 27/27/29
